<?xml version="1.0" encoding="UTF-8"?>
<!DOCTYPE svg PUBLIC "-//W3C//DTD SVG 1.1//EN" "http://www.w3.org/Graphics/SVG/1.1/DTD/svg11.dtd">
<svg xmlns="http://www.w3.org/2000/svg" version="1.1" width="512px" height="580px" style="shape-rendering:geometricPrecision; text-rendering:geometricPrecision; image-rendering:optimizeQuality; fill-rule:evenodd; clip-rule:evenodd" xmlns:xlink="http://www.w3.org/1999/xlink">
<g><path style="opacity:0.961" fill="#000000" d="M 218.5,-0.5 C 243.167,-0.5 267.833,-0.5 292.5,-0.5C 343.942,2.02206 393.942,12.1887 442.5,30C 458.773,36.6374 473.773,45.304 487.5,56C 499.034,65.9982 507.034,78.1648 511.5,92.5C 511.5,223.833 511.5,355.167 511.5,486.5C 507.034,500.835 499.034,513.002 487.5,523C 466.398,538.884 443.065,550.551 417.5,558C 376.191,570.051 334.191,577.218 291.5,579.5C 267.5,579.5 243.5,579.5 219.5,579.5C 167.71,577.108 117.376,566.942 68.5,549C 52.3876,542.115 37.3876,533.449 23.5,523C 11.9661,513.002 3.96609,500.835 -0.5,486.5C -0.5,354.833 -0.5,223.167 -0.5,91.5C 7.14746,70.6711 20.8141,54.8378 40.5,44C 67.7753,28.7954 96.7753,18.1288 127.5,12C 157.699,5.76854 188.033,1.60187 218.5,-0.5 Z M 234.5,22.5 C 282.652,21.2424 330.319,25.409 377.5,35C 411.207,41.3638 442.207,54.0304 470.5,73C 493.554,90.9919 494.221,109.659 472.5,129C 460.783,137.862 448.116,145.196 434.5,151C 399.688,164.497 363.688,173.163 326.5,177C 262.493,184.094 198.826,181.427 135.5,169C 104.994,163.056 76.3273,152.39 49.5,137C 36.6451,129.817 27.8117,119.317 23,105.5C 22.3183,97.2115 24.6517,89.8782 30,83.5C 42.3108,70.5369 56.8108,60.7036 73.5,54C 103.427,41.7677 134.427,33.4344 166.5,29C 189.227,25.8316 211.894,23.6649 234.5,22.5 Z M 22.5,146.5 C 42.2973,161.902 64.2973,173.402 88.5,181C 142.933,197.429 198.599,205.263 255.5,204.5C 311.313,205.19 365.98,197.69 419.5,182C 444.706,174.482 467.54,162.649 488,146.5C 488.667,174.5 488.667,202.5 488,230.5C 484.457,242.072 477.624,251.238 467.5,258C 445.7,272.395 422.033,282.728 396.5,289C 302.5,312.333 208.5,312.333 114.5,289C 86.8074,282.149 61.4741,270.483 38.5,254C 30.9049,247.744 25.7382,239.91 23,230.5C 22.5,202.502 22.3334,174.502 22.5,146.5 Z M 22.5,271.5 C 44.9627,288.731 69.9627,301.231 97.5,309C 169.37,328.295 242.37,334.295 316.5,327C 361.394,323.609 404.727,313.609 446.5,297C 461.92,290.879 475.753,282.379 488,271.5C 488.667,299.5 488.667,327.5 488,355.5C 485.129,365.4 479.629,373.567 471.5,380C 452.064,394.05 430.731,404.383 407.5,411C 306.168,438.333 204.835,438.333 103.5,411C 83.6789,405.174 65.0122,396.841 47.5,386C 41.0725,381.577 35.2392,376.41 30,370.5C 26.8575,365.882 24.5242,360.882 23,355.5C 22.5,327.502 22.3334,299.502 22.5,271.5 Z M 22.5,397.5 C 44.9936,414.411 69.9936,426.578 97.5,434C 160.366,451.207 224.366,457.874 289.5,454C 345.582,452.322 399.582,440.989 451.5,420C 464.341,413.751 476.341,406.251 487.5,397.5C 488.667,425.161 488.833,452.827 488,480.5C 485.047,490.884 479.214,499.384 470.5,506C 448.175,521.229 423.842,532.229 397.5,539C 315.081,559.097 232.081,561.764 148.5,547C 111.273,541.038 76.606,528.372 44.5,509C 36.5788,503.081 30.0788,495.914 25,487.5C 24.1779,485.212 23.5112,482.878 23,480.5C 22.5,452.835 22.3334,425.169 22.5,397.5 Z"/></g>
<g><path style="opacity:0.903" fill="#000000" d="M 438.5,215.5 C 448.027,213.914 453.693,217.747 455.5,227C 453.698,236.411 448.032,240.078 438.5,238C 431.657,233.8 429.824,227.967 433,220.5C 434.73,218.598 436.563,216.931 438.5,215.5 Z"/></g>
<g><path style="opacity:0.905" fill="#000000" d="M 393.5,226.5 C 405.32,225.486 410.487,230.819 409,242.5C 405.363,249.449 399.863,251.616 392.5,249C 383.408,241.259 383.741,233.759 393.5,226.5 Z"/></g>
<g><path style="opacity:0.902" fill="#000000" d="M 350.5,237.5 C 362.559,238.96 366.392,245.293 362,256.5C 355.991,262.691 349.658,263.024 343,257.5C 338.027,247.807 340.527,241.14 350.5,237.5 Z"/></g>
<g><path style="opacity:0.903" fill="#000000" d="M 438.5,340.5 C 451.52,339.267 456.687,344.934 454,357.5C 450.364,363.177 445.197,365.01 438.5,363C 431.67,358.839 429.836,353.005 433,345.5C 434.73,343.598 436.563,341.931 438.5,340.5 Z"/></g>
<g><path style="opacity:0.9" fill="#000000" d="M 394.5,351.5 C 407.015,351.538 411.515,357.538 408,369.5C 401.757,377.076 395.09,377.41 388,370.5C 384.18,362.114 386.346,355.78 394.5,351.5 Z"/></g>
<g><path style="opacity:0.909" fill="#000000" d="M 347.5,363.5 C 360.175,362.003 365.341,367.336 363,379.5C 359.96,385.603 355.126,387.769 348.5,386C 341.622,383.065 339.122,377.898 341,370.5C 342.694,367.642 344.861,365.309 347.5,363.5 Z"/></g>
<g><path style="opacity:0.905" fill="#000000" d="M 439.5,465.5 C 451.819,464.977 456.653,470.643 454,482.5C 452.833,485 451,486.833 448.5,488C 433.883,489.39 429.05,483.223 434,469.5C 435.5,467.531 437.333,466.198 439.5,465.5 Z"/></g>
<g><path style="opacity:0.898" fill="#000000" d="M 394.5,476.5 C 408.042,477.244 412.208,483.911 407,496.5C 400.349,502.113 394.016,501.78 388,495.5C 384.18,487.114 386.346,480.78 394.5,476.5 Z"/></g>
<g><path style="opacity:0.905" fill="#000000" d="M 347.5,488.5 C 357.065,486.929 362.732,490.762 364.5,500C 362.679,509.419 357.012,513.086 347.5,511C 341.092,507.677 338.925,502.511 341,495.5C 342.694,492.642 344.861,490.309 347.5,488.5 Z"/></g>
</svg>
