<?xml version="1.0" encoding="UTF-8"?>
<!DOCTYPE svg PUBLIC "-//W3C//DTD SVG 1.1//EN" "http://www.w3.org/Graphics/SVG/1.1/DTD/svg11.dtd">
<svg xmlns="http://www.w3.org/2000/svg" version="1.1" width="512px" height="512px" style="shape-rendering:geometricPrecision; text-rendering:geometricPrecision; image-rendering:optimizeQuality; fill-rule:evenodd; clip-rule:evenodd" xmlns:xlink="http://www.w3.org/1999/xlink">
<g><path style="opacity:0.969" fill="#000000" d="M 53.5,-0.5 C 188.167,-0.5 322.833,-0.5 457.5,-0.5C 486.5,6.5 504.5,24.5 511.5,53.5C 511.5,188.167 511.5,322.833 511.5,457.5C 504.5,486.5 486.5,504.5 457.5,511.5C 322.833,511.5 188.167,511.5 53.5,511.5C 24.5,504.5 6.5,486.5 -0.5,457.5C -0.5,322.833 -0.5,188.167 -0.5,53.5C 6.5,24.5 24.5,6.5 53.5,-0.5 Z M 57.5,30.5 C 189.5,30.3333 321.5,30.5 453.5,31C 467,35.1667 475.833,44 480,57.5C 480.667,130.5 480.667,203.5 480,276.5C 455.097,245.206 429.597,214.372 403.5,184C 386.281,172.702 369.281,173.035 352.5,185C 305.667,231.833 258.833,278.667 212,325.5C 194.126,309.957 175.959,294.79 157.5,280C 139.936,270.471 123.269,271.804 107.5,284C 82.2944,306.208 56.7944,328.041 31,349.5C 30.3333,252.167 30.3333,154.833 31,57.5C 35.3506,43.9836 44.1839,34.9836 57.5,30.5 Z M 152.5,93.5 C 178.604,91.7923 195.104,103.459 202,128.5C 203.883,152.571 193.383,168.405 170.5,176C 140.038,179.092 122.705,165.425 118.5,135C 120.95,113.731 132.283,99.8973 152.5,93.5 Z M 378.5,206.5 C 381.338,207.17 383.838,208.504 386,210.5C 417.333,249.167 448.667,287.833 480,326.5C 480.667,368.833 480.667,411.167 480,453.5C 475.833,467 467,475.833 453.5,480C 321.5,480.667 189.5,480.667 57.5,480C 44,475.833 35.1667,467 31,453.5C 30.3333,432.5 30.3333,411.5 31,390.5C 62.5,363.667 94,336.833 125.5,310C 128.383,307.391 131.717,305.558 135.5,304.5C 137.541,305.236 139.541,306.069 141.5,307C 162.167,324.333 182.833,341.667 203.5,359C 210.746,363.771 217.746,363.438 224.5,358C 273.139,308.361 322.139,259.028 371.5,210C 373.713,208.384 376.047,207.217 378.5,206.5 Z"/></g>
<g><path style="opacity:0.963" fill="#000000" d="M 148.5,62.5 C 186.254,59.1511 213.088,74.4844 229,108.5C 239.878,143.188 231.378,172.022 203.5,195C 171.055,214.618 140.055,212.618 110.5,189C 87.1252,164.398 81.6252,136.232 94,104.5C 105.655,81.9361 123.821,67.9361 148.5,62.5 Z M 152.5,93.5 C 132.283,99.8973 120.95,113.731 118.5,135C 122.705,165.425 140.038,179.092 170.5,176C 193.383,168.405 203.883,152.571 202,128.5C 195.104,103.459 178.604,91.7923 152.5,93.5 Z"/></g>
</svg>
