<?xml version="1.0" encoding="UTF-8"?>
<!DOCTYPE svg PUBLIC "-//W3C//DTD SVG 1.1//EN" "http://www.w3.org/Graphics/SVG/1.1/DTD/svg11.dtd">
<svg xmlns="http://www.w3.org/2000/svg" version="1.1" width="512px" height="512px" style="shape-rendering:geometricPrecision; text-rendering:geometricPrecision; image-rendering:optimizeQuality; fill-rule:evenodd; clip-rule:evenodd" xmlns:xlink="http://www.w3.org/1999/xlink">
<g><path style="opacity:0.996" fill="#000000" d="M 69.5,63.5 C 193.5,63.3333 317.5,63.5 441.5,64C 461.333,69.1667 473.833,81.6667 479,101.5C 479.667,204.167 479.667,306.833 479,409.5C 473.833,429.333 461.333,441.833 441.5,447C 317.5,447.667 193.5,447.667 69.5,447C 49.6667,441.833 37.1667,429.333 32,409.5C 31.3333,306.833 31.3333,204.167 32,101.5C 37.3488,81.6518 49.8488,68.9852 69.5,63.5 Z M 79.5,95.5 C 196.834,95.3333 314.167,95.5 431.5,96C 438.566,96.4469 443.399,99.9469 446,106.5C 447.43,124.119 447.93,141.786 447.5,159.5C 319.5,159.5 191.5,159.5 63.5,159.5C 63.0703,141.786 63.5703,124.119 65,106.5C 67.8214,100.023 72.6547,96.3561 79.5,95.5 Z M 63.5,191.5 C 191.5,191.5 319.5,191.5 447.5,191.5C 447.667,260.834 447.5,330.167 447,399.5C 445.833,408.667 440.667,413.833 431.5,415C 314.167,415.667 196.833,415.667 79.5,415C 70.3333,413.833 65.1667,408.667 64,399.5C 63.5,330.167 63.3333,260.834 63.5,191.5 Z"/></g>
<g><path style="opacity:0.937" fill="#000000" d="M 345.5,111.5 C 364.778,110.61 371.278,119.276 365,137.5C 358.055,144.069 350.222,145.236 341.5,141C 334.931,134.055 333.764,126.222 338,117.5C 340.114,114.879 342.614,112.879 345.5,111.5 Z"/></g>
<g><path style="opacity:0.961" fill="#000000" d="M 393.5,111.5 C 402.839,111.334 412.173,111.5 421.5,112C 430.482,116.473 433.649,123.64 431,133.5C 429.167,138 426,141.167 421.5,143C 412.167,143.667 402.833,143.667 393.5,143C 384.518,138.527 381.351,131.36 384,121.5C 386.022,116.98 389.189,113.647 393.5,111.5 Z"/></g>
<g><path style="opacity:0.974" fill="#000000" d="M 249.5,239.5 C 255.105,238.908 260.439,239.741 265.5,242C 278,254.5 290.5,267 303,279.5C 309.294,297.867 302.794,306.367 283.5,305C 279.084,302.588 275.251,299.422 272,295.5C 271.667,316.167 271.333,336.833 271,357.5C 268.193,364.487 263.027,367.82 255.5,367.5C 247.973,367.82 242.807,364.487 240,357.5C 239.667,336.833 239.333,316.167 239,295.5C 235.749,299.422 231.916,302.588 227.5,305C 208.206,306.367 201.706,297.867 208,279.5C 221.425,265.572 235.258,252.239 249.5,239.5 Z"/></g>
</svg>
